<svg xmlns="http://www.w3.org/2000/svg" viewBox="0 0 32 32" fill="none">
  <rect width="32" height="32" rx="8" fill="#09090b" />
  <path d="M16 8C13.5 8 11.5 9.5 11 11.5C10.5 13.5 11 15.5 12 17C11 18.5 10.5 20.5 11 22.5C11.5 24.5 13.5 26 16 26C18.5 26 20.5 24.5 21 22.5C21.5 20.5 21 18.5 20 17C21 15.5 21.5 13.5 21 11.5C20.5 9.5 18.5 8 16 8Z" fill="#18181b" stroke="#3f3f46" stroke-width="1.5"/>
  <ellipse cx="16" cy="14" rx="5" ry="6" fill="#09090b"/>
  <circle cx="16" cy="13" r="1.5" fill="#10b981"/>
  <path d="M14 20C14 20 15 21.5 16 21.5C17 21.5 18 20 18 20" stroke="#3f3f46" stroke-width="1.5" stroke-linecap="round"/>
  <rect x="13" y="6" width="6" height="3" rx="1" fill="#3f3f46"/>
  <circle cx="16" cy="7" r="0.75" fill="#10b981"/>
</svg>
